<svg  viewBox="0 0 23 23" fill="none" xmlns="http://www.w3.org/2000/svg">
<path fill-rule="evenodd" clip-rule="evenodd" d="M8.52287 3.75634C8.04412 3.75634 7.65602 3.36824 7.65602 2.88949V0.866845C7.65602 0.3881 8.04412 0 8.52287 0C9.00161 0 9.38971 0.3881 9.38971 0.866845V2.88949C9.38971 3.36824 9.00161 3.75634 8.52287 3.75634ZM15.1698 7.36642L7.36813 7.36642L7.36813 15.168L15.1698 15.168L15.1698 7.36642ZM7.36813 5.63273C6.41064 5.63273 5.63444 6.40893 5.63444 7.36642V15.168C5.63444 16.1255 6.41064 16.9017 7.36813 16.9017H15.1698C16.1272 16.9017 16.9034 16.1255 16.9034 15.168V7.36642C16.9034 6.40893 16.1272 5.63273 15.1698 5.63273H7.36813ZM7.65602 21.671C7.65602 22.1497 8.04412 22.5378 8.52287 22.5378C9.00161 22.5378 9.38971 22.1497 9.38971 21.671V19.6484C9.38971 19.1696 9.00161 18.7815 8.52287 18.7815C8.04412 18.7815 7.65602 19.1696 7.65602 19.6484V21.671ZM14.1574 3.75634C13.6787 3.75634 13.2906 3.36824 13.2906 2.88949V0.866845C13.2906 0.3881 13.6787 0 14.1574 0C14.6362 0 15.0243 0.3881 15.0243 0.866845V2.88949C15.0243 3.36824 14.6362 3.75634 14.1574 3.75634ZM13.2906 21.671C13.2906 22.1497 13.6787 22.5378 14.1574 22.5378C14.6362 22.5378 15.0243 22.1497 15.0243 21.671V19.6484C15.0243 19.1696 14.6362 18.7815 14.1574 18.7815C13.6787 18.7815 13.2906 19.1696 13.2906 19.6484V21.671ZM0 8.52607C0 8.04733 0.3881 7.65923 0.866845 7.65923H2.88949C3.36824 7.65923 3.75634 8.04733 3.75634 8.52607C3.75634 9.00482 3.36824 9.39292 2.88949 9.39292H0.866845C0.3881 9.39292 0 9.00482 0 8.52607ZM19.6496 7.65923C19.1709 7.65923 18.7828 8.04733 18.7828 8.52607C18.7828 9.00482 19.1709 9.39292 19.6496 9.39292H21.6723C22.151 9.39292 22.5391 9.00482 22.5391 8.52607C22.5391 8.04733 22.151 7.65923 21.6723 7.65923H19.6496ZM18.7828 14.1571C18.7828 13.6784 19.1709 13.2903 19.6496 13.2903H21.6723C22.151 13.2903 22.5391 13.6784 22.5391 14.1571C22.5391 14.6358 22.151 15.0239 21.6723 15.0239H19.6496C19.1709 15.0239 18.7828 14.6358 18.7828 14.1571ZM0.866845 13.2903C0.3881 13.2903 0 13.6784 0 14.1571C0 14.6358 0.3881 15.0239 0.866845 15.0239H2.88949C3.36824 15.0239 3.75634 14.6358 3.75634 14.1571C3.75634 13.6784 3.36824 13.2903 2.88949 13.2903H0.866845Z" fill="url(#paint0_linear_124_717)"/>
<defs>
<linearGradient id="paint0_linear_124_717" x1="11.2735" y1="-0.484168" x2="11.2735" y2="23.0242" gradientUnits="userSpaceOnUse">
<stop stop-color="#8096CC"/>
<stop offset="1" stop-color="#8096CB" stop-opacity="0.5"/>
</linearGradient>
</defs>
</svg>
