<svg width="36" height="36" viewBox="0 0 36 36" fill="none" xmlns="http://www.w3.org/2000/svg">
<mask id="mask0_124_366" style="mask-type:alpha" maskUnits="userSpaceOnUse" x="0" y="0" width="36" height="36">
<path fill-rule="evenodd" clip-rule="evenodd" d="M18 36C27.9411 36 36 27.9411 36 18C36 17.9499 35.9998 17.8999 35.9994 17.85C35.9336 24.2703 30.7086 29.4547 24.2727 29.4547C17.7959 29.4547 12.5455 24.2042 12.5455 17.7274C12.5455 11.2506 17.7959 6.00015 24.2727 6.00015C30.3663 6.00015 35.3743 10.6476 35.9457 16.5913C35.2271 7.3086 27.4671 0 18 0C8.05887 0 0 8.05887 0 18C0 27.9411 8.05887 36 18 36Z" fill="#D9D9D9"/>
</mask>
<g mask="url(#mask0_124_366)">
<path fill-rule="evenodd" clip-rule="evenodd" d="M-19.0909 25.3635L23.1818 -16.9092L23.9532 -16.1378L-18.3195 26.1349L-19.0909 25.3635ZM-17.5483 26.9066L24.7244 -15.3661L25.4958 -14.5948L-16.7769 27.678L-17.5483 26.9066ZM26.2673 -13.824L-16.0054 28.4487L-15.234 29.2201L27.0387 -13.0526L26.2673 -13.824ZM-14.4626 29.9919L27.8101 -12.2808L28.5815 -11.5094L-13.6913 30.7633L-14.4626 29.9919ZM30.8955 -9.19516L-11.3772 33.0776L-10.6058 33.849L31.6669 -8.42377L30.8955 -9.19516ZM-8.29157 36.1626L33.9812 -6.11013L34.7525 -5.33874L-7.52018 36.934L-8.29157 36.1626ZM37.0667 -3.02403L-5.20604 39.2487L-4.43465 40.0201L37.8381 -2.25264L37.0667 -3.02403ZM-2.12045 42.3343L40.1523 0.0615902L40.9237 0.832979L-1.34906 43.1057L-2.12045 42.3343ZM43.2377 3.14671L0.965019 45.4194L1.73641 46.1908L44.0091 3.91809L43.2377 3.14671ZM4.05072 48.5052L46.3234 6.23243L47.0948 7.00382L4.82211 49.2766L4.05072 48.5052ZM49.4089 9.31834L7.13616 51.5911L7.90755 52.3625L50.1803 10.0897L49.4089 9.31834ZM10.2217 54.6763L52.4945 12.4035L53.2658 13.1749L10.9931 55.4477L10.2217 54.6763ZM29.3528 -10.7381L-12.9199 31.5346L-12.1485 32.306L30.1242 -9.96675L29.3528 -10.7381ZM-9.83445 34.6204L32.4383 -7.65228L33.2097 -6.88089L-9.06306 35.3918L-9.83445 34.6204ZM35.524 -4.56697L-6.74876 37.7058L-5.97737 38.4771L36.2954 -3.79558L35.524 -4.56697ZM-3.66333 40.7914L38.6094 -1.48129L39.3808 -0.709902L-2.89194 41.5628L-3.66333 40.7914ZM41.695 1.60373L-0.577705 43.8765L0.193684 44.6479L42.4664 2.37512L41.695 1.60373ZM2.50785 46.9625L44.7806 4.68979L45.552 5.46118L3.27924 47.7339L2.50785 46.9625ZM47.8661 7.77546L5.59342 50.0482L6.36481 50.8196L48.6375 8.54685L47.8661 7.77546ZM8.67888 53.1333L50.9516 10.8606L51.723 11.632L9.45028 53.9047L8.67888 53.1333ZM54.0373 13.9462L11.7646 56.219L12.536 56.9904L54.8087 14.7176L54.0373 13.9462Z" fill="url(#paint0_linear_124_366)"/>
</g>
<g opacity="0.6">
<mask id="mask1_124_366" style="mask-type:alpha" maskUnits="userSpaceOnUse" x="0" y="0" width="36" height="36">
<path fill-rule="evenodd" clip-rule="evenodd" d="M18 36C27.9411 36 36 27.9411 36 18C36 8.05887 27.9411 0 18 0C8.53234 0 0.771904 7.30952 0.0541725 16.5931C0.624726 10.6485 5.63316 6.00015 11.7273 6.00015C18.2041 6.00015 23.4546 11.2506 23.4546 17.7274C23.4546 24.2042 18.2041 29.4547 11.7273 29.4547C5.29081 29.4547 0.0654249 24.2694 0.000626631 17.8482C0.000209149 17.8988 0 17.9494 0 18C0 27.9411 8.05887 36 18 36Z" fill="#D9D9D9"/>
</mask>
<g mask="url(#mask1_124_366)">
<path fill-rule="evenodd" clip-rule="evenodd" d="M-18.9334 25.3635L23.3393 -16.9092L24.1107 -16.1378L-18.162 26.1349L-18.9334 25.3635ZM-17.3908 26.9066L24.8819 -15.3661L25.6533 -14.5948L-16.6194 27.678L-17.3908 26.9066ZM26.4248 -13.824L-15.848 28.4487L-15.0766 29.2201L27.1962 -13.0526L26.4248 -13.824ZM-14.3052 29.9919L27.9676 -12.2808L28.739 -11.5094L-13.5338 30.7633L-14.3052 29.9919ZM31.053 -9.19516L-11.2197 33.0776L-10.4483 33.849L31.8244 -8.42377L31.053 -9.19516ZM-8.13409 36.1626L34.1386 -6.11013L34.91 -5.33874L-7.3627 36.934L-8.13409 36.1626ZM37.2242 -3.02403L-5.04855 39.2487L-4.27716 40.0201L37.9956 -2.25264L37.2242 -3.02403ZM-1.96297 42.3343L40.3098 0.0615864L41.0812 0.832977L-1.19158 43.1057L-1.96297 42.3343ZM43.3952 3.14671L1.12251 45.4194L1.89389 46.1908L44.1666 3.91809L43.3952 3.14671ZM4.2082 48.5052L46.4809 6.23243L47.2523 7.00382L4.97959 49.2766L4.2082 48.5052ZM49.5664 9.31833L7.29365 51.5911L8.06504 52.3625L50.3378 10.0897L49.5664 9.31833ZM10.3792 54.6763L52.6519 12.4035L53.4233 13.1749L11.1506 55.4477L10.3792 54.6763ZM29.5103 -10.7381L-12.7624 31.5346L-11.9911 32.306L30.2817 -9.96675L29.5103 -10.7381ZM-9.67696 34.6204L32.5958 -7.65228L33.3672 -6.88089L-8.90557 35.3918L-9.67696 34.6204ZM35.6815 -4.56697L-6.59127 37.7058L-5.81988 38.4771L36.4528 -3.79558L35.6815 -4.56697ZM-3.50585 40.7914L38.7669 -1.48129L39.5383 -0.709902L-2.73446 41.5628L-3.50585 40.7914ZM41.8525 1.60373L-0.420219 43.8765L0.35117 44.6479L42.6239 2.37512L41.8525 1.60373ZM2.66533 46.9625L44.9381 4.68979L45.7094 5.46118L3.43672 47.7339L2.66533 46.9625ZM48.0236 7.77546L5.7509 50.0482L6.52229 50.8196L48.795 8.54685L48.0236 7.77546ZM8.83637 53.1333L51.1091 10.8606L51.8805 11.632L9.60776 53.9047L8.83637 53.1333ZM54.1948 13.9462L11.9221 56.219L12.6935 56.9904L54.9662 14.7176L54.1948 13.9462Z" fill="url(#paint1_linear_124_366)"/>
</g>
</g>
<defs>
<linearGradient id="paint0_linear_124_366" x1="17.859" y1="-16.9092" x2="17.859" y2="56.9902" gradientUnits="userSpaceOnUse">
<stop stop-color="#84ACFF"/>
<stop offset="1" stop-color="#3D79F5" stop-opacity="0.12"/>
</linearGradient>
<linearGradient id="paint1_linear_124_366" x1="18.0165" y1="-16.9092" x2="18.0165" y2="56.9902" gradientUnits="userSpaceOnUse">
<stop stop-color="#84ACFF"/>
<stop offset="1" stop-color="#3D79F5" stop-opacity="0.12"/>
</linearGradient>
</defs>
</svg>
