<svg width="45" height="29" viewBox="0 0 45 29" fill="none" xmlns="http://www.w3.org/2000/svg">
<mask id="mask0_124_432" style="mask-type:alpha" maskUnits="userSpaceOnUse" x="0" y="0" width="45" height="29">
<path fill-rule="evenodd" clip-rule="evenodd" d="M18.7279 1.75736C16.3848 -0.585784 12.5858 -0.585785 10.2426 1.75736L1.75736 10.2426C-0.585786 12.5858 -0.585786 16.3848 1.75736 18.7279L10.2426 27.2132C12.5858 29.5564 16.3848 29.5564 18.7279 27.2132L22.4853 23.4558L26.2426 27.2132C28.5858 29.5563 32.3848 29.5564 34.7279 27.2132L43.2132 18.7279C45.5564 16.3848 45.5564 12.5858 43.2132 10.2426L34.7279 1.75736C32.3848 -0.585785 28.5858 -0.585787 26.2426 1.75736L22.4853 5.51472L18.7279 1.75736ZM22.4853 5.51472L17.7574 10.2426C15.4142 12.5858 15.4142 16.3848 17.7574 18.7279L22.4853 23.4558L27.2132 18.7279C29.5563 16.3848 29.5563 12.5858 27.2132 10.2426L22.4853 5.51472Z" fill="#D9D9D9"/>
</mask>
<g mask="url(#mask0_124_432)">
<path fill-rule="evenodd" clip-rule="evenodd" d="M-14.5761 19.8782L27.6966 -22.3945L28.468 -21.6231L-13.8047 20.6496L-14.5761 19.8782ZM-13.0335 21.4212L29.2392 -20.8515L30.0106 -20.0801L-12.2621 22.1926L-13.0335 21.4212ZM30.7821 -19.3093L-11.4906 22.9634L-10.7192 23.7348L31.5535 -18.538L30.7821 -19.3093ZM-9.94785 24.5066L32.3249 -17.7661L33.0963 -16.9947L-9.17646 25.278L-9.94785 24.5066ZM35.4103 -14.6805L-6.8624 27.5922L-6.09101 28.3636L36.1817 -13.9091L35.4103 -14.6805ZM-3.77677 30.6772L38.496 -11.5955L39.2673 -10.8241L-3.00538 31.4486L-3.77677 30.6772ZM41.5815 -8.50938L-0.691237 33.7633L0.0801516 34.5347L42.3529 -7.73799L41.5815 -8.50938ZM2.39435 36.849L44.6671 -5.42376L45.4385 -4.65237L3.16574 37.6204L2.39435 36.849ZM47.7525 -2.33865L5.47982 39.9341L6.25121 40.7055L48.5239 -1.56726L47.7525 -2.33865ZM8.56552 43.0198L50.8382 0.747082L51.6096 1.51847L9.33691 43.7912L8.56552 43.0198ZM53.9237 3.83298L11.651 46.1057L12.4224 46.8771L54.6951 4.60437L53.9237 3.83298ZM14.7367 49.1909L57.0094 6.91819L57.7808 7.68958L15.508 49.9623L14.7367 49.1909ZM33.8676 -16.2235L-8.40513 26.0492L-7.63374 26.8206L34.639 -15.4521L33.8676 -16.2235ZM-5.31965 29.1351L36.9531 -13.1376L37.7245 -12.3662L-4.54826 29.9065L-5.31965 29.1351ZM40.0388 -10.0523L-2.23396 32.2204L-1.46257 32.9918L40.8102 -9.28093L40.0388 -10.0523ZM0.851472 35.3061L43.1242 -6.96664L43.8956 -6.19525L1.62286 36.0775L0.851472 35.3061ZM46.2098 -3.88162L3.9371 38.3911L4.70848 39.1625L46.9812 -3.11023L46.2098 -3.88162ZM7.02265 41.4772L49.2954 -0.795565L50.0668 -0.0241756L7.79404 42.2486L7.02265 41.4772ZM52.3809 2.29011L10.1082 44.5628L10.8796 45.3342L53.1523 3.0615L52.3809 2.29011ZM13.1937 47.6479L55.4664 5.37522L56.2378 6.14661L13.9651 48.4193L13.1937 47.6479ZM58.5521 8.46089L16.2794 50.7336L17.0508 51.505L59.3235 9.23228L58.5521 8.46089Z" fill="url(#paint0_linear_124_432)"/>
</g>
<defs>
<linearGradient id="paint0_linear_124_432" x1="22.3738" y1="-22.3945" x2="22.3738" y2="51.5049" gradientUnits="userSpaceOnUse">
<stop stop-color="#84ACFF"/>
<stop offset="1" stop-color="#3D79F5" stop-opacity="0.12"/>
</linearGradient>
</defs>
</svg>
