<svg width="163" height="62" viewBox="0 0 163 62" fill="none" xmlns="http://www.w3.org/2000/svg">
<path d="M28.9048 9.4382C28.9048 11.5715 27.1969 13.311 25.1024 13.311C23.0078 13.311 21.3 11.5715 21.3 9.4382C21.3 7.30486 23.0078 5.56538 25.1024 5.56538C27.1969 5.56538 28.9048 7.30486 28.9048 9.4382ZM8.92603 21.6146C9.31271 21.4177 9.63495 21.1879 9.92496 20.8597C10.6017 20.1705 10.9883 19.2515 11.0528 18.2997C11.085 17.8402 10.9883 17.4464 10.9561 16.9869C10.9239 16.5274 10.9883 16.0351 11.1172 15.5756C11.665 13.672 13.5663 12.4905 15.4675 12.8187C17.272 13.1141 19.1087 12.0967 19.7532 10.3572C20.3655 8.74897 19.8499 6.84538 18.4965 5.79512C17.1753 4.74486 15.2741 4.74486 13.8885 5.72948C13.1473 6.28743 12.5995 7.10794 12.374 8.02691C12.2773 8.4864 12.2451 8.94589 12.3095 9.40538C12.374 9.83204 12.4062 10.2587 12.374 10.7182C12.1484 12.6874 10.4728 14.1972 8.53934 14.23C8.12043 14.23 7.70152 14.1315 7.25039 14.0987C6.79926 14.0987 6.34813 14.1644 5.89699 14.3285C5.02695 14.6238 4.2858 15.2802 3.83467 16.0679C2.99685 17.5449 3.22242 19.4813 4.38248 20.7285C5.54253 22.0413 7.41151 22.3695 8.92603 21.6146ZM14.6941 14.8536C14.3396 15.0505 13.9852 15.2802 13.6951 15.5756C13.0507 16.232 12.6318 17.151 12.5995 18.1028C12.5673 18.5295 12.664 18.9561 12.6962 19.3828C12.7284 19.8423 12.664 20.3018 12.5351 20.7613C11.9873 22.5992 10.1183 23.7808 8.28155 23.4526C6.50925 23.1572 4.73694 24.1418 4.09246 25.8813C3.48021 27.4567 3.99579 29.2946 5.34919 30.3449C6.67036 31.3623 8.50712 31.3951 9.86052 30.4105C10.6017 29.8526 11.1495 29.0649 11.3428 28.1459C11.4395 27.7192 11.4717 27.2269 11.4073 26.8002C11.3428 26.3736 11.3106 25.9469 11.3428 25.5202C11.5362 23.5838 13.1796 22.1069 15.0808 22.1069C15.4997 22.1069 15.9186 22.2054 16.3375 22.2382C16.7886 22.2382 17.2398 22.1726 17.6587 22.0085C18.4965 21.7131 19.2376 21.0895 19.6888 20.3018C20.5266 18.8577 20.301 16.9541 19.1732 15.7069C18.0131 14.4597 16.1764 14.0987 14.6941 14.8536Z" fill="#BDC4D1"/>
<g filter="url(#filter0_d_124_307)">
<path d="M26.8068 20.1678H31.7748C33.5028 20.1678 34.9908 20.5278 36.2628 21.2238C37.5348 21.9198 38.5188 22.9038 39.1908 24.1518C39.8628 25.4238 40.2228 26.8878 40.2228 28.5678C40.2228 30.2478 39.8628 31.7118 39.1908 32.9838C38.5188 34.2558 37.5348 35.2398 36.2628 35.9358C34.9908 36.6318 33.5028 36.9678 31.7748 36.9678H26.8068V20.1678ZM31.7748 35.0478C33.7668 35.0478 35.3268 34.4718 36.4308 33.2958C37.5348 32.1438 38.0868 30.5598 38.0868 28.5678C38.0868 26.5758 37.5348 24.9918 36.4308 23.8398C35.3268 22.6878 33.7908 22.0878 31.7748 22.0878H28.8948V35.0478H31.7748ZM42.6215 27.5598C43.1015 26.6238 43.7975 25.9038 44.6855 25.3758C45.5495 24.8478 46.5575 24.5838 47.7095 24.5838C48.8135 24.5838 49.8215 24.8238 50.6855 25.2798C51.5495 25.7598 52.2215 26.4318 52.7255 27.2958C53.2055 28.1838 53.4695 29.2158 53.5175 30.3918C53.5175 30.5838 53.4935 30.8478 53.4695 31.2318H43.9655V31.3998C43.9895 32.5998 44.3495 33.5598 45.0695 34.2798C45.7655 34.9998 46.6775 35.3598 47.8295 35.3598C48.6935 35.3598 49.4375 35.1438 50.0615 34.7118C50.6855 34.2798 51.0935 33.6558 51.3095 32.8638H53.3015C53.0615 34.1118 52.4615 35.1438 51.5015 35.9358C50.5415 36.7278 49.3655 37.1118 47.9735 37.1118C46.7495 37.1118 45.6935 36.8718 44.7815 36.3438C43.8695 35.8158 43.1495 35.0958 42.6455 34.1358C42.1415 33.1758 41.9015 32.0958 41.9015 30.8478C41.9015 29.5998 42.1415 28.5198 42.6215 27.5598ZM51.4775 29.5998C51.3815 28.5678 50.9735 27.7518 50.3015 27.1758C49.6295 26.5998 48.7655 26.3118 47.7335 26.3118C46.7975 26.3118 45.9815 26.6238 45.2855 27.2238C44.5655 27.8478 44.1815 28.6398 44.0855 29.5998H51.4775ZM53.8305 24.7278H55.9425L59.6385 34.7358L63.3105 24.7278H65.3745L60.7905 36.9678H58.4145L53.8305 24.7278ZM81.2675 32.9598C80.5955 34.2558 79.6355 35.2878 78.4355 36.0078C77.2115 36.7518 75.8195 37.1118 74.2835 37.1118C72.7235 37.1118 71.3315 36.7518 70.1315 36.0078C68.9075 35.2878 67.9475 34.2558 67.2755 32.9598C66.6035 31.6638 66.2675 30.1998 66.2675 28.5678C66.2675 26.9358 66.6035 25.4718 67.2755 24.1758C67.9475 22.8798 68.9075 21.8718 70.1315 21.1278C71.3315 20.4078 72.7235 20.0238 74.2835 20.0238C75.8195 20.0238 77.2115 20.4078 78.4355 21.1278C79.6355 21.8718 80.5955 22.8798 81.2675 24.1758C81.9395 25.4718 82.2995 26.9358 82.2995 28.5678C82.2995 30.1998 81.9395 31.6638 81.2675 32.9598ZM69.1475 31.9998C69.6275 33.0078 70.3235 33.7758 71.2115 34.3518C72.0995 34.9278 73.1315 35.1918 74.2835 35.1918C75.4355 35.1918 76.4435 34.9278 77.3315 34.3518C78.2195 33.7758 78.9155 33.0078 79.4195 31.9998C79.8995 30.9918 80.1635 29.8638 80.1635 28.5678C80.1635 27.2958 79.8995 26.1678 79.4195 25.1598C78.9155 24.1518 78.2195 23.3838 77.3315 22.8078C76.4435 22.2318 75.4355 21.9438 74.2835 21.9438C73.1315 21.9438 72.0995 22.2318 71.2115 22.8078C70.3235 23.3838 69.6275 24.1518 69.1475 25.1598C68.6435 26.1678 68.4035 27.2958 68.4035 28.5678C68.4035 29.8638 68.6435 30.9918 69.1475 31.9998ZM93.6024 25.3278C94.4904 25.8318 95.1864 26.5518 95.6904 27.4878C96.1944 28.4478 96.4584 29.5518 96.4584 30.8478C96.4584 32.0958 96.1944 33.1758 95.6904 34.1118C95.1864 35.0718 94.4904 35.7918 93.6024 36.3198C92.6904 36.8478 91.6824 37.1118 90.5784 37.1118C89.5704 37.1118 88.7304 36.9438 88.0344 36.5838C87.3144 36.2238 86.7624 35.7198 86.3784 35.0958V41.7678H84.4104V24.7278H86.1144L86.3784 26.6958C87.3864 25.3038 88.8024 24.5838 90.5784 24.5838C91.7064 24.5838 92.7144 24.8478 93.6024 25.3278ZM93.3144 34.1118C94.0584 33.2718 94.4424 32.1918 94.4424 30.8478C94.4424 29.5278 94.0584 28.4478 93.3144 27.6078C92.5704 26.7678 91.5864 26.3358 90.3864 26.3358C89.5944 26.3358 88.8984 26.5278 88.2744 26.9118C87.6504 27.2958 87.1944 27.8238 86.8584 28.4958C86.5224 29.1678 86.3544 29.9358 86.3544 30.7998C86.3544 31.6878 86.5224 32.4798 86.8584 33.1758C87.1944 33.8718 87.6504 34.3998 88.2744 34.7838C88.8984 35.1678 89.5944 35.3598 90.3864 35.3598C91.5864 35.3598 92.5704 34.9518 93.3144 34.1118ZM99.1426 26.5278H96.9346V24.7278H99.1426V21.2958H101.111V24.7278H104.207V26.5278H101.111V33.7518C101.111 34.2798 101.207 34.6398 101.399 34.8558C101.591 35.0718 101.951 35.1678 102.455 35.1678H104.591V36.9678H102.335C101.183 36.9678 100.343 36.7278 99.8626 36.1998C99.3826 35.6958 99.1426 34.8798 99.1426 33.7758V26.5278ZM107.647 20.3598C107.887 20.5998 108.007 20.9118 108.007 21.2718C108.007 21.6558 107.887 21.9438 107.647 22.1838C107.407 22.4238 107.095 22.5438 106.735 22.5438C106.351 22.5438 106.063 22.4238 105.823 22.1838C105.583 21.9438 105.463 21.6558 105.463 21.2718C105.463 20.9118 105.583 20.5998 105.823 20.3598C106.063 20.1198 106.351 19.9998 106.735 19.9998C107.095 19.9998 107.407 20.1198 107.647 20.3598ZM105.751 24.7278H107.719V36.9678H105.751V24.7278ZM127.167 25.8798C128.031 26.7438 128.463 28.0878 128.463 29.9118V36.9678H126.495V30.0318C126.495 28.8558 126.231 27.9438 125.727 27.3198C125.223 26.6958 124.503 26.3838 123.591 26.3838C122.559 26.3838 121.743 26.7438 121.167 27.4638C120.591 28.1838 120.303 29.1678 120.303 30.4158V36.9678H118.335V30.0318C118.335 28.8558 118.071 27.9438 117.567 27.3198C117.039 26.6958 116.319 26.3838 115.383 26.3838C114.375 26.3838 113.583 26.7678 113.007 27.5358C112.431 28.3038 112.143 29.2878 112.143 30.5118V36.9678H110.175V24.7278H111.879L112.143 26.4078C113.007 25.2078 114.207 24.5838 115.719 24.5838C116.583 24.5838 117.375 24.7998 118.047 25.1838C118.719 25.5678 119.247 26.1438 119.583 26.9118C120.447 25.3758 121.863 24.5838 123.831 24.5838C125.199 24.5838 126.303 25.0158 127.167 25.8798ZM142.195 35.1678V36.9678H141.115C140.323 36.9678 139.771 36.8238 139.435 36.4878C139.099 36.1758 138.907 35.6958 138.907 35.0718C137.947 36.4398 136.579 37.1118 134.803 37.1118C133.435 37.1118 132.331 36.7998 131.515 36.1518C130.699 35.5278 130.291 34.6398 130.291 33.5358C130.291 32.3118 130.699 31.3758 131.539 30.7038C132.379 30.0558 133.603 29.7198 135.211 29.7198H138.811V28.8798C138.811 28.0878 138.523 27.4638 137.995 27.0078C137.467 26.5758 136.723 26.3358 135.763 26.3358C134.899 26.3358 134.203 26.5278 133.651 26.9118C133.099 27.2958 132.763 27.7758 132.643 28.3998H130.675C130.819 27.1998 131.347 26.2638 132.259 25.5918C133.171 24.9198 134.371 24.5838 135.859 24.5838C137.419 24.5838 138.619 24.9678 139.483 25.7358C140.347 26.5038 140.779 27.5838 140.779 28.9998V34.2798C140.779 34.8798 141.043 35.1678 141.595 35.1678H142.195ZM138.811 31.3758H135.019C133.195 31.3758 132.283 32.0718 132.283 33.4158C132.283 34.0398 132.523 34.5198 133.003 34.8798C133.483 35.2638 134.131 35.4318 134.947 35.4318C136.147 35.4318 137.083 35.1198 137.779 34.4958C138.451 33.8718 138.811 33.0318 138.811 31.9758V31.3758Z" fill="#BDC4D1"/>
</g>
<defs>
<filter id="filter0_d_124_307" x="6.80683" y="0" width="155.388" height="61.7676" filterUnits="userSpaceOnUse" color-interpolation-filters="sRGB">
<feFlood flood-opacity="0" result="BackgroundImageFix"/>
<feColorMatrix in="SourceAlpha" type="matrix" values="0 0 0 0 0 0 0 0 0 0 0 0 0 0 0 0 0 0 127 0" result="hardAlpha"/>
<feOffset/>
<feGaussianBlur stdDeviation="10"/>
<feComposite in2="hardAlpha" operator="out"/>
<feColorMatrix type="matrix" values="0 0 0 0 1 0 0 0 0 1 0 0 0 0 1 0 0 0 0.2 0"/>
<feBlend mode="normal" in2="BackgroundImageFix" result="effect1_dropShadow_124_307"/>
<feBlend mode="normal" in="SourceGraphic" in2="effect1_dropShadow_124_307" result="shape"/>
</filter>
</defs>
</svg>
