<svg width="195" height="75" viewBox="0 0 195 75" fill="none" xmlns="http://www.w3.org/2000/svg">
<path d="M34.7259 10.9774C34.7259 13.5374 32.6741 15.6248 30.1577 15.6248C27.6413 15.6248 25.5895 13.5374 25.5895 10.9774C25.5895 8.4174 27.6413 6.33001 30.1577 6.33001C32.6741 6.33001 34.7259 8.4174 34.7259 10.9774ZM10.7236 25.5891C11.1882 25.3528 11.5753 25.0771 11.9237 24.6832C12.7367 23.8562 13.2013 22.7534 13.2787 21.6112C13.3174 21.0599 13.2013 20.5872 13.1626 20.0359C13.1239 19.4845 13.2013 18.8937 13.3561 18.3423C14.0143 16.058 16.2983 14.6402 18.5824 15.034C20.7504 15.3885 22.957 14.1676 23.7313 12.0802C24.4669 10.1503 23.8474 7.86601 22.2215 6.60571C20.6342 5.3454 18.3502 5.3454 16.6855 6.52694C15.7951 7.19647 15.1369 8.18109 14.866 9.28386C14.7498 9.83524 14.7111 10.3866 14.7885 10.938C14.866 11.45 14.9047 11.962 14.866 12.5134C14.595 14.8765 12.5819 16.6882 10.2591 16.7276C9.7558 16.7276 9.25253 16.6094 8.71054 16.57C8.16856 16.57 7.62657 16.6488 7.08458 16.8457C6.03932 17.2002 5.14892 17.9879 4.60693 18.9331C3.60039 20.7054 3.87138 23.0291 5.26506 24.5257C6.65874 26.1011 8.90411 26.4949 10.7236 25.5891ZM17.6533 17.4759C17.2275 17.7122 16.8016 17.9879 16.4532 18.3423C15.6789 19.13 15.1757 20.2328 15.1369 21.3749C15.0982 21.8869 15.2144 22.3989 15.2531 22.9109C15.2918 23.4623 15.2144 24.0137 15.0595 24.5651C14.4014 26.7706 12.156 28.1885 9.94937 27.7946C7.82014 27.4402 5.6909 28.6217 4.91664 30.7091C4.18109 32.5996 4.8005 34.8051 6.42646 36.0654C8.0137 37.2863 10.2204 37.3257 11.8463 36.1442C12.7367 35.4746 13.3948 34.5294 13.6271 33.4266C13.7433 32.9146 13.782 32.3239 13.7046 31.8119C13.6271 31.2999 13.5884 30.7879 13.6271 30.2759C13.8594 27.9522 15.8338 26.1799 18.1179 26.1799C18.6211 26.1799 19.1244 26.298 19.6277 26.3374C20.1697 26.3374 20.7117 26.2586 21.2149 26.0617C22.2215 25.7072 23.1119 24.9589 23.6539 24.0137C24.6604 22.2808 24.3894 19.9965 23.0345 18.4999C21.6408 17.0032 19.4341 16.57 17.6533 17.4759Z" fill="white"/>
<g filter="url(#filter0_d_124_1096)">
<path d="M32.2054 24.2297H38.1739C40.2499 24.2297 42.0376 24.6622 43.5657 25.4984C45.0939 26.3346 46.2761 27.5168 47.0834 29.0161C47.8907 30.5443 48.3232 32.3031 48.3232 34.3214C48.3232 36.3398 47.8907 38.0986 47.0834 39.6268C46.2761 41.1549 45.0939 42.3371 43.5657 43.1733C42.0376 44.0094 40.2499 44.4131 38.1739 44.4131H32.2054V24.2297ZM38.1739 42.1064C40.5671 42.1064 42.4412 41.4144 43.7676 40.0016C45.0939 38.6176 45.7571 36.7146 45.7571 34.3214C45.7571 31.9283 45.0939 30.0253 43.7676 28.6412C42.4412 27.2573 40.5959 26.5364 38.1739 26.5364H34.7139V42.1064H38.1739ZM51.205 33.1104C51.7817 31.9859 52.6178 31.1209 53.6847 30.4866C54.7227 29.8523 55.9337 29.5351 57.3177 29.5351C58.644 29.5351 59.855 29.8234 60.893 30.3713C61.931 30.9479 62.7383 31.7553 63.3438 32.7933C63.9205 33.8601 64.2377 35.0999 64.2953 36.5128C64.2953 36.7434 64.2665 37.0606 64.2377 37.5219H52.8197V37.7238C52.8485 39.1654 53.281 40.3188 54.146 41.1838C54.9822 42.0488 56.0778 42.4813 57.4618 42.4813C58.4998 42.4813 59.3937 42.2218 60.1433 41.7028C60.893 41.1838 61.3832 40.4341 61.6427 39.4826H64.0358C63.7475 40.9819 63.0267 42.2218 61.8733 43.1733C60.72 44.1248 59.3072 44.5861 57.6348 44.5861C56.1643 44.5861 54.8957 44.2978 53.8 43.6634C52.7043 43.0291 51.8393 42.1641 51.2338 41.0108C50.6283 39.8574 50.34 38.5599 50.34 37.0606C50.34 35.5613 50.6283 34.2638 51.205 33.1104ZM61.8445 35.5613C61.7292 34.3214 61.239 33.3411 60.4317 32.6491C59.6243 31.9571 58.5863 31.6111 57.3465 31.6111C56.222 31.6111 55.2417 31.9859 54.4055 32.7068C53.5405 33.4564 53.0792 34.4079 52.9638 35.5613H61.8445ZM64.6713 29.7081H67.2086L71.649 41.7316L76.0605 29.7081H78.5401L73.033 44.4131H70.1785L64.6713 29.7081ZM97.6339 39.5979C96.8265 41.1549 95.6732 42.3948 94.2315 43.2598C92.761 44.1536 91.0887 44.5861 89.2434 44.5861C87.3692 44.5861 85.6969 44.1536 84.2552 43.2598C82.7847 42.3948 81.6314 41.1549 80.824 39.5979C80.0167 38.0409 79.613 36.2821 79.613 34.3214C79.613 32.3608 80.0167 30.6019 80.824 29.0449C81.6314 27.4879 82.7847 26.2769 84.2552 25.3831C85.6969 24.5181 87.3692 24.0567 89.2434 24.0567C91.0887 24.0567 92.761 24.5181 94.2315 25.3831C95.6732 26.2769 96.8265 27.4879 97.6339 29.0449C98.4412 30.6019 98.8737 32.3608 98.8737 34.3214C98.8737 36.2821 98.4412 38.0409 97.6339 39.5979ZM83.073 38.4446C83.6497 39.6556 84.4859 40.5783 85.5527 41.2703C86.6195 41.9623 87.8594 42.2794 89.2434 42.2794C90.6274 42.2794 91.8384 41.9623 92.9052 41.2703C93.972 40.5783 94.8082 39.6556 95.4137 38.4446C95.9904 37.2336 96.3075 35.8784 96.3075 34.3214C96.3075 32.7933 95.9904 31.4381 95.4137 30.2271C94.8082 29.0161 93.972 28.0934 92.9052 27.4014C91.8384 26.7094 90.6274 26.3634 89.2434 26.3634C87.8594 26.3634 86.6195 26.7094 85.5527 27.4014C84.4859 28.0934 83.6497 29.0161 83.073 30.2271C82.4675 31.4381 82.1792 32.7933 82.1792 34.3214C82.1792 35.8784 82.4675 37.2336 83.073 38.4446ZM112.453 30.4289C113.52 31.0344 114.356 31.8994 114.961 33.0239C115.567 34.1773 115.884 35.5036 115.884 37.0606C115.884 38.5599 115.567 39.8574 114.961 40.9819C114.356 42.1353 113.52 43.0003 112.453 43.6346C111.357 44.2689 110.146 44.5861 108.82 44.5861C107.609 44.5861 106.6 44.3843 105.764 43.9518C104.899 43.5193 104.235 42.9138 103.774 42.1641V50.1798H101.41V29.7081H103.457L103.774 32.0724C104.985 30.4001 106.686 29.5351 108.82 29.5351C110.175 29.5351 111.386 29.8523 112.453 30.4289ZM112.107 40.9819C113.001 39.9728 113.462 38.6753 113.462 37.0606C113.462 35.4748 113.001 34.1773 112.107 33.1681C111.213 32.1589 110.031 31.6399 108.589 31.6399C107.638 31.6399 106.802 31.8706 106.052 32.3319C105.302 32.7933 104.754 33.4276 104.351 34.2349C103.947 35.0423 103.745 35.9649 103.745 37.0029C103.745 38.0698 103.947 39.0213 104.351 39.8574C104.754 40.6936 105.302 41.3279 106.052 41.7893C106.802 42.2506 107.638 42.4813 108.589 42.4813C110.031 42.4813 111.213 41.9911 112.107 40.9819ZM119.109 31.8706H116.456V29.7081H119.109V25.5849H121.473V29.7081H125.193V31.8706H121.473V40.5494C121.473 41.1838 121.589 41.6163 121.819 41.8758C122.05 42.1353 122.482 42.2506 123.088 42.2506H125.654V44.4131H122.944C121.56 44.4131 120.551 44.1248 119.974 43.4904C119.397 42.8849 119.109 41.9046 119.109 40.5783V31.8706ZM129.326 24.4604C129.614 24.7487 129.758 25.1236 129.758 25.5561C129.758 26.0174 129.614 26.3634 129.326 26.6517C129.037 26.9401 128.662 27.0843 128.23 27.0843C127.769 27.0843 127.423 26.9401 127.134 26.6517C126.846 26.3634 126.702 26.0174 126.702 25.5561C126.702 25.1236 126.846 24.7487 127.134 24.4604C127.423 24.1721 127.769 24.0279 128.23 24.0279C128.662 24.0279 129.037 24.1721 129.326 24.4604ZM127.048 29.7081H129.412V44.4131H127.048V29.7081ZM152.777 31.0921C153.815 32.1301 154.334 33.7448 154.334 35.9361V44.4131H151.969V36.0803C151.969 34.6674 151.652 33.5718 151.047 32.8221C150.441 32.0724 149.576 31.6976 148.481 31.6976C147.241 31.6976 146.26 32.1301 145.568 32.9951C144.876 33.8601 144.53 35.0423 144.53 36.5416V44.4131H142.166V36.0803C142.166 34.6674 141.849 33.5718 141.243 32.8221C140.609 32.0724 139.744 31.6976 138.62 31.6976C137.409 31.6976 136.457 32.1589 135.765 33.0816C135.073 34.0043 134.727 35.1864 134.727 36.6569V44.4131H132.363V29.7081H134.41L134.727 31.7264C135.765 30.2848 137.207 29.5351 139.023 29.5351C140.061 29.5351 141.013 29.7946 141.82 30.2559C142.627 30.7173 143.262 31.4093 143.665 32.3319C144.703 30.4866 146.405 29.5351 148.769 29.5351C150.412 29.5351 151.739 30.0541 152.777 31.0921ZM170.832 42.2506V44.4131H169.534C168.583 44.4131 167.92 44.2401 167.516 43.8364C167.112 43.4616 166.882 42.8849 166.882 42.1353C165.728 43.7788 164.085 44.5861 161.951 44.5861C160.308 44.5861 158.981 44.2113 158.001 43.4328C157.021 42.6831 156.53 41.6163 156.53 40.2899C156.53 38.8194 157.021 37.6949 158.03 36.8876C159.039 36.1091 160.509 35.7054 162.441 35.7054H166.766V34.6963C166.766 33.7448 166.42 32.9951 165.786 32.4473C165.152 31.9283 164.258 31.6399 163.104 31.6399C162.066 31.6399 161.23 31.8706 160.567 32.3319C159.904 32.7933 159.5 33.3699 159.356 34.1196H156.992C157.165 32.6779 157.799 31.5534 158.895 30.7461C159.99 29.9388 161.432 29.5351 163.22 29.5351C165.094 29.5351 166.536 29.9964 167.574 30.9191C168.612 31.8418 169.131 33.1393 169.131 34.8404V41.1838C169.131 41.9046 169.448 42.2506 170.111 42.2506H170.832ZM166.766 37.6949H162.211C160.019 37.6949 158.924 38.5311 158.924 40.1458C158.924 40.8954 159.212 41.4721 159.789 41.9046C160.365 42.3659 161.144 42.5678 162.124 42.5678C163.566 42.5678 164.69 42.1929 165.526 41.4433C166.334 40.6936 166.766 39.6844 166.766 38.4158V37.6949Z" fill="white"/>
</g>
<defs>
<filter id="filter0_d_124_1096" x="8.17762" y="0.000541687" width="186.682" height="74.2069" filterUnits="userSpaceOnUse" color-interpolation-filters="sRGB">
<feFlood flood-opacity="0" result="BackgroundImageFix"/>
<feColorMatrix in="SourceAlpha" type="matrix" values="0 0 0 0 0 0 0 0 0 0 0 0 0 0 0 0 0 0 127 0" result="hardAlpha"/>
<feOffset/>
<feGaussianBlur stdDeviation="12.0139"/>
<feComposite in2="hardAlpha" operator="out"/>
<feColorMatrix type="matrix" values="0 0 0 0 1 0 0 0 0 1 0 0 0 0 1 0 0 0 0.2 0"/>
<feBlend mode="normal" in2="BackgroundImageFix" result="effect1_dropShadow_124_1096"/>
<feBlend mode="normal" in="SourceGraphic" in2="effect1_dropShadow_124_1096" result="shape"/>
</filter>
</defs>
</svg>
