<svg width="1340" height="354" viewBox="0 0 1340 354" fill="none" xmlns="http://www.w3.org/2000/svg">
<mask id="mask0_124_954" style="mask-type:alpha" maskUnits="userSpaceOnUse" x="0" y="-3" width="1340" height="357">
<ellipse cx="670" cy="175.5" rx="670" ry="178.5" fill="url(#paint0_radial_124_954)"/>
</mask>
<g mask="url(#mask0_124_954)">
<path d="M602.897 -263.725L602.897 523.725" stroke="#172136"/>
<path d="M511.333 -263.725L511.333 523.725" stroke="#172136"/>
<path d="M695.425 -263.725L695.425 523.725" stroke="#172136"/>
<path d="M786.989 -263.725L786.989 523.725" stroke="#172136"/>
<path d="M879.517 -263.725L879.517 523.725" stroke="#172136"/>
<path d="M971.081 -263.725L971.081 523.725" stroke="#172136"/>
<path d="M1062.64 -263.725L1062.64 523.725" stroke="#172136"/>
<path d="M1155.17 -263.725L1155.17 523.725" stroke="#172136"/>
<path d="M1246.74 -263.725L1246.74 523.725" stroke="#172136"/>
<path d="M649.161 -263.725L649.161 523.725" stroke="#172136"/>
<path d="M557.597 -263.725L557.597 523.725" stroke="#172136"/>
<path d="M741.689 -263.725L741.689 523.725" stroke="#172136"/>
<path d="M833.253 -263.725L833.253 523.725" stroke="#172136"/>
<path d="M924.817 -263.725L924.817 523.725" stroke="#172136"/>
<path d="M1017.34 -263.725L1017.34 523.725" stroke="#172136"/>
<path d="M1108.91 -263.725L1108.91 523.725" stroke="#172136"/>
<path d="M1201.44 -263.725L1201.44 523.725" stroke="#172136"/>
<path d="M1293 -263.725L1293 523.725" stroke="#172136"/>
<path d="M509.406 338.669L1293 338.669" stroke="#172136"/>
<path d="M509.406 246.142L1293 246.142" stroke="#172136"/>
<path d="M509.406 153.614L1293 153.614" stroke="#172136"/>
<path d="M509.406 61.0859L1293 61.0859" stroke="#172136"/>
<path d="M509.406 292.405L1293 292.405" stroke="#172136"/>
<path d="M509.406 199.878L1293 199.878" stroke="#172136"/>
<path d="M509.406 107.35L1293 107.35" stroke="#172136"/>
<path d="M509.406 14.8223L1293 14.8222" stroke="#172136"/>
<path d="M5.32233 -263.725L5.32236 523.725" stroke="#172136"/>
<path d="M97.8501 -263.725L97.8501 523.725" stroke="#172136"/>
<path d="M189.414 -263.725L189.414 523.725" stroke="#172136"/>
<path d="M280.978 -263.725L280.978 523.725" stroke="#172136"/>
<path d="M373.506 -263.725L373.506 523.725" stroke="#172136"/>
<path d="M465.07 -263.725L465.07 523.725" stroke="#172136"/>
<path d="M51.5862 -263.725L51.5862 523.725" stroke="#172136"/>
<path d="M143.15 -263.725L143.15 523.725" stroke="#172136"/>
<path d="M235.678 -263.725L235.678 523.725" stroke="#172136"/>
<path d="M327.242 -263.725L327.242 523.725" stroke="#172136"/>
<path d="M419.769 -263.725L419.77 523.725" stroke="#172136"/>
<path d="M511.333 -263.725L511.333 523.725" stroke="#172136"/>
<path d="M-272.261 338.67L511.333 338.67" stroke="#172136"/>
<path d="M-272.261 246.142L511.333 246.142" stroke="#172136"/>
<path d="M-272.261 153.614L511.333 153.614" stroke="#172136"/>
<path d="M-272.261 61.0859L511.333 61.0859" stroke="#172136"/>
<path d="M-272.261 292.405L511.333 292.405" stroke="#172136"/>
<path d="M-272.261 199.878L511.333 199.878" stroke="#172136"/>
<path d="M-272.261 107.351L511.333 107.351" stroke="#172136"/>
<path d="M-272.261 14.8223L511.333 14.8222" stroke="#172136"/>
</g>
<defs>
<radialGradient id="paint0_radial_124_954" cx="0" cy="0" r="1" gradientUnits="userSpaceOnUse" gradientTransform="translate(670 175.5) rotate(90) scale(178.5 670)">
<stop stop-color="#0054FF"/>
<stop offset="1" stop-color="#0A0C0F" stop-opacity="0"/>
</radialGradient>
</defs>
</svg>
